Coordinates
version=1
nRows=19
nColumns=33
inDegrees=yes

Units are S.I. units (second, meters, Newtons, ...)
Angles are in degrees.

endheader
time	ground_thorax_rot_x	ground_thorax_rot_y	ground_thorax_rot_z	ground_thorax_tx	ground_thorax_ty	ground_thorax_tz	clav_prot_r	clav_elev_r	scapula_abduction_r	scapula_elevation_r	scapula_upward_rot_r	scapula_winging_r	shoulder_elv_r	plane_of_elev_r	axial_rot_r	elbow_flexion_r	pro_sup_r	wrist_flex_r	wrist_dev_r	clav_prot_l	clav_elev_l	scapula_abduction_l	scapula_elevation_l	scapula_upward_rot_l	scapula_winging_l	shoulder_elv_l	plane_of_elev_l	axial_rot_l	elbow_flexion_l	pro_sup_l	wrist_flex_l	wrist_dev_l
      2.17000000	      1.88240584	      7.17624539	     -5.13456237	     -0.14468399	      1.00207251	      0.00803493	    -17.96081384	    -14.83250230	    -22.78007274	     -9.96229215	      7.25243068	      5.69494518	     50.96614230	    -27.72509056	     37.38940305	     66.65524609	     -7.22090816	     -4.68189883	     18.84068536	      1.26845366	     -6.55061802	     -4.49861218	     -2.68454413	     -6.76347742	     -0.19996095	     49.28953312	    -25.96724384	    -13.14033302	     74.92201547	     -6.73770147	     16.14219063	      9.56109986
      2.18000000	      1.93386859	      7.23299421	     -5.12644830	     -0.14462080	      1.00222853	      0.00797184	    -17.82561107	    -15.14585745	    -22.59029659	    -10.20544561	      7.11634242	      5.90574249	     50.61483228	    -27.01534514	     36.91012276	     64.98043943	     -7.26319135	     -5.11719849	     19.16309241	      1.39530005	     -6.90041405	     -4.69751572	     -2.44872173	     -6.96651057	     -0.25981751	     49.42543405	    -25.03679602	    -12.97667040	     73.60691124	     -6.85936948	     16.43648583	      9.98724117
      2.19000000	      1.91047559	      7.27324658	     -5.20049877	     -0.14475751	      1.00190552	      0.00802076	    -17.65433843	    -15.29646707	    -22.35621103	    -10.29429176	      6.98654307	      6.01331632	     50.06013162	    -25.96318883	     36.40178580	     63.16674246	     -7.45068495	     -5.60604253	     19.83858019	      1.59216693	     -7.05584213	     -4.96131411	     -2.43032791	     -7.26281433	     -0.25031810	     49.75417773	    -23.82777193	    -12.90779149	     72.21318918	     -7.12152081	     17.03850316	     10.52917221
      2.20000000	      1.91950770	      7.38165247	     -4.93539709	     -0.14495072	      1.00161494	      0.00803222	    -17.54137162	    -15.21652780	    -22.24674877	    -10.16853075	      6.85985302	      5.98542582	     49.47672553	    -24.93454501	     36.04920387	     61.22132724	     -7.68296505	     -6.02894199	     20.73053991	      1.82112139	     -7.14824724	     -5.14427635	     -2.63059017	     -7.94957523	     -0.28791522	     50.21557853	    -22.47077451	    -12.89996714	     70.67582014	     -7.50952957	     17.93273370	     11.19393923
      2.21000000	      1.98609414	      7.36631080	     -4.79519828	     -0.14499708	      1.00188163	      0.00803990	    -17.26704854	    -15.64396867	    -21.78536357	    -10.52694737	      6.76598684	      6.25025721	     49.41762600	    -24.57754174	     36.07873900	     59.62718882	     -7.55338825	     -6.34519267	     20.71952329	      2.03126848	     -7.58861838	     -5.55284711	     -2.24572622	     -7.98858336	     -0.28620359	     50.29532904	    -21.99616643	    -13.05832122	     69.23523354	     -7.41023027	     17.97510129	     11.46918910
      2.22000000	      1.96640205	      7.38423456	     -5.07900509	     -0.14479202	      1.00203208	      0.00803905	    -17.14657676	    -16.04106691	    -21.61167390	    -10.85350638	      6.63282865	      6.51226698	     48.88672972	    -23.65210991	     35.42818156	     57.63241526	     -7.71823249	     -6.65718642	     21.04005214	      2.14618114	     -7.96509320	     -5.75950521	     -1.94485520	     -8.09276761	     -0.34422969	     50.44742176	    -20.94465018	    -12.61743353	     67.64000973	     -7.53006866	     18.25886853	     11.80580036
      2.23000000	      1.90060021	      7.48243357	     -5.06933379	     -0.14505617	      1.00129405	      0.00800149	    -17.02243885	    -15.86916186	    -21.44595564	    -10.66878025	      6.59187263	      6.40886617	     48.03940892	    -22.27051501	     34.95583566	     55.28909202	     -8.26093031	     -6.84365829	     22.06657253	      2.43987113	     -7.84749039	     -6.09660254	     -2.26969530	     -8.60653929	     -0.24220067	     50.85760288	    -19.33228753	    -12.65081596	     65.95806780	     -7.95591822	     19.29910295	     12.22259218
      2.24000000	      1.96095379	      7.50706363	     -5.02034991	     -0.14494915	      1.00154999	      0.00792324	    -16.85419024	    -16.21051763	    -21.17833391	    -10.95207767	      6.49486132	      6.62849320	     47.77629911	    -21.69705086	     34.74648212	     53.41435795	     -8.25962134	     -7.06324669	     22.15602734	      2.62756391	     -8.26747434	     -6.39722605	     -1.97804200	     -8.82708678	     -0.29132186	     50.98191375	    -18.52576473	    -12.49921306	     64.26403779	     -7.95321249	     19.53882202	     12.51578430
      2.25000000	      1.95980045	      7.55529926	     -4.79622413	     -0.14501293	      1.00170446	      0.00791838	    -16.53478286	    -16.55213065	    -20.67610707	    -11.21715570	      6.36705775	      6.84903836	     47.70248556	    -21.42669356	     34.91306398	     51.75895345	     -8.12605364	     -7.36423031	     22.15355007	      2.86721220	     -8.65502248	     -6.85182680	     -1.62716480	     -8.83150485	     -0.25808680	     51.09810166	    -18.11554317	    -12.78501113	     62.71381869	     -7.82251921	     19.61369920	     12.77886925
      2.26000000	      1.99664615	      7.54547003	     -5.15123218	     -0.14473567	      1.00168024	      0.00783027	    -16.48859491	    -16.84073472	    -20.60583449	    -11.46768922	      6.29789804	      7.04351755	     47.04788823	    -20.27185809	     34.02055501	     49.41693542	     -8.40503180	     -7.40918768	     22.42458238	      3.04079939	     -8.88109786	     -7.11190938	     -1.50065464	     -9.02125573	     -0.25820170	     51.17515774	    -16.76482094	    -12.34626468	     60.84359711	     -7.95933480	     20.07749999	     12.94779503
      2.27000000	      1.93032676	      7.65891137	     -5.08315084	     -0.14485718	      1.00120929	      0.00784839	    -16.38532404	    -16.72918470	    -20.47365236	    -11.33572932	      6.24177368	      6.97421358	     46.25264507	    -19.13930605	     33.56018425	     47.13154428	     -8.71223287	     -7.22585463	     22.88576218	      3.34198168	     -8.80453976	     -7.51327946	     -1.73631014	     -9.40805983	     -0.12401521	     51.38961393	    -15.26010202	    -12.29671049	     58.73011557	     -8.10918894	     20.89930832	     13.00511153
      2.28000000	      1.98781028	      7.64445846	     -4.82609729	     -0.14486136	      1.00138348	      0.00777589	    -16.10480767	    -17.05457445	    -20.01599957	    -11.60277435	      6.15490516	      7.17805174	     46.20248178	    -18.89115537	     33.70852544	     45.48145436	     -8.53371260	     -7.46760503	     22.82517576	      3.61252289	     -9.17917306	     -7.98584618	     -1.43563685	     -9.50170018	     -0.08482207	     51.44742992	    -14.82363986	    -12.61602783	     57.05998798	     -7.93580934	     21.01089327	     13.22909995
      2.29000000	      1.97157056	      7.74923226	     -5.10852680	     -0.14464493	      1.00119497	      0.00771877	    -16.02211798	    -17.21860704	    -19.89623456	    -11.73441600	      6.09160935	      7.29004046	     45.63144600	    -17.89364401	     33.01921142	     43.43514619	     -8.52961951	     -7.26825438	     22.81885002	      3.84517882	     -9.34896204	     -8.35626002	     -1.34683147	     -9.65459372	     -0.02096789	     51.57556785	    -13.42075537	    -12.31545605	     54.89463187	     -7.91003166	     21.44576042	     13.14896905
      2.30000000	      1.98225367	      7.87300816	     -5.07530867	     -0.14469604	      1.00101198	      0.00758521	    -15.87060656	    -17.28924575	    -19.65979348	    -11.77750853	      6.04467002	      7.33093219	     45.19805634	    -17.15484002	     32.68962494	     41.50710185	     -8.34551277	     -7.04349557	     22.78977310	      4.16447246	     -9.44347829	     -8.84871585	     -1.36009427	     -9.88356547	      0.10942928	     51.64229597	    -12.17515690	    -12.38291021	     52.71037142	     -7.79377374	     21.88773446	     12.96851789
      2.31000000	      1.97973655	      7.86901665	     -4.75958115	     -0.14465648	      1.00132209	      0.00753070	    -15.60631467	    -17.58709364	    -19.25770541	    -12.00455114	      5.91208565	      7.52521048	     45.12346961	    -16.99519763	     32.79734903	     39.99568626	     -8.10560943	     -7.25295772	     22.67831287	      4.41525478	     -9.83322481	     -9.29408478	     -1.02892193	     -9.93562262	      0.13592280	     51.65897036	    -11.81727036	    -12.65691253	     50.88852058	     -7.57273941	     21.92403519	     13.16059156
      2.32000000	      2.00027936	      7.88094221	     -4.71260512	     -0.14454118	      1.00163297	      0.00750541	    -15.37015835	    -17.89651941	    -18.89401260	    -12.25016564	      5.79436277	      7.72854728	     45.02031761	    -16.65369337	     32.68114342	     38.50757245	     -7.87140247	     -7.37111785	     22.49241092	      4.65650496	    -10.24935895	     -9.74464024	     -0.63932490	     -9.90458038	      0.15848168	     51.67031273	    -11.23012005	    -12.78750551	     48.85230683	     -7.36486140	     21.92453406	     13.31071867
      2.33000000	      1.91980665	      8.09966561	     -4.71559299	     -0.14460202	      1.00075683	      0.00734351	    -15.37195923	    -17.57405317	    -18.97892570	    -11.90650039	      5.70087178	      7.53077835	     44.18809858	    -15.46755279	     31.70118269	     36.60287076	     -7.19901908	     -6.35509760	     22.09605903	      5.04460949	     -9.66132477	    -10.31448965	     -1.28346273	    -10.14613602	      0.56241667	     51.34820799	     -9.06111906	    -12.69720395	     45.96740037	     -7.34687806	     22.28894816	     12.06692122
      2.34000000	      1.92775851	      8.06108044	     -4.65229887	     -0.14450824	      1.00113056	      0.00734877	    -15.11443131	    -17.92423178	    -18.55876621	    -12.20115019	      5.61554700	      7.74958690	     44.19625555	    -15.28272822	     31.78667163	     35.40144250	     -6.91698706	     -6.56084246	     21.96147635	      5.29011477	    -10.14562116	    -10.78507902	     -0.81604373	    -10.07671995	      0.57714028	     51.40229545	     -8.70389475	    -12.89510367	     44.08157087	     -7.06831045	     22.19194818	     12.27577324
      2.35000000	      2.10233521	      8.03212106	     -4.70855658	     -0.14430103	      1.00154054	      0.00727591	    -14.96806004	    -18.22689872	    -18.30654309	    -12.47172972	      5.57441865	      7.94677231	     44.24608627	    -14.95158179	     31.52111325	     34.18622908	     -6.56357018	     -6.61390741	     21.66094192	      5.53218094	    -10.59174080	    -11.22903363	     -0.40263347	    -10.05284159	      0.59104479	     51.24703440	     -8.03287265	    -12.98320660	     41.99435646	     -6.78991713	     22.01514989	     12.31497846
